<svg width="96" height="19" viewBox="0 0 96 19" fill="none" xmlns="http://www.w3.org/2000/svg">
<g filter="url(#filter0_d_30_42)">
<path d="M9.99321 4.77888L8.93923 5.07718C8.87294 4.90151 8.77517 4.73082 8.64591 4.5651C8.51996 4.39607 8.34761 4.25686 8.12886 4.14749C7.91011 4.03811 7.63005 3.98343 7.28866 3.98343C6.82133 3.98343 6.43189 4.09114 6.12034 4.30658C5.8121 4.5187 5.65798 4.78882 5.65798 5.11695C5.65798 5.40862 5.76404 5.63897 5.97616 5.808C6.18828 5.97703 6.51972 6.1179 6.97048 6.23059L8.104 6.50899C8.78677 6.67471 9.29553 6.92826 9.63028 7.26965C9.96504 7.60772 10.1324 8.04356 10.1324 8.57718C10.1324 9.01468 10.0065 9.40577 9.75457 9.75047C9.50599 10.0952 9.15798 10.3669 8.71054 10.5658C8.26309 10.7647 7.74274 10.8641 7.14946 10.8641C6.37058 10.8641 5.72593 10.6951 5.21551 10.357C4.70509 10.0189 4.38194 9.52509 4.24605 8.87547L5.35969 8.59706C5.46575 9.00805 5.66627 9.31629 5.96125 9.52178C6.25954 9.72727 6.64899 9.83002 7.12957 9.83002C7.67645 9.83002 8.11063 9.71401 8.43213 9.48201C8.75694 9.24668 8.91935 8.96496 8.91935 8.63684C8.91935 8.37168 8.82654 8.14962 8.64094 7.97064C8.45533 7.78835 8.17029 7.65246 7.78582 7.56297L6.51309 7.26468C5.81376 7.09896 5.30003 6.84209 4.9719 6.49408C4.64709 6.14275 4.48469 5.7036 4.48469 5.17661C4.48469 4.74574 4.60566 4.36458 4.84761 4.03314C5.09288 3.7017 5.42597 3.44152 5.8469 3.2526C6.27114 3.06368 6.75173 2.96922 7.28866 2.96922C8.04434 2.96922 8.63762 3.13494 9.06849 3.46638C9.50268 3.79782 9.81092 4.23532 9.99321 4.77888ZM15.1003 10.8641C14.3645 10.8641 13.7298 10.7017 13.1962 10.3769C12.6659 10.0488 12.2565 9.59138 11.9682 9.00473C11.6831 8.41477 11.5406 7.72869 11.5406 6.94649C11.5406 6.1643 11.6831 5.4749 11.9682 4.87831C12.2565 4.27841 12.6576 3.81108 13.1713 3.47632C13.6883 3.13826 14.2916 2.96922 14.981 2.96922C15.3787 2.96922 15.7714 3.03551 16.1592 3.16808C16.547 3.30066 16.9 3.5161 17.2182 3.81439C17.5364 4.10937 17.7899 4.50047 17.9788 4.98769C18.1677 5.4749 18.2622 6.07481 18.2622 6.7874V7.28456H12.3758V6.27036H17.069C17.069 5.83949 16.9829 5.45502 16.8105 5.11695C16.6415 4.77888 16.3995 4.51207 16.0847 4.31652C15.7731 4.12097 15.4052 4.0232 14.981 4.0232C14.5136 4.0232 14.1093 4.1392 13.7679 4.37121C13.4298 4.5999 13.1696 4.8982 12.9873 5.2661C12.8051 5.63399 12.7139 6.02841 12.7139 6.44934V7.12547C12.7139 7.70218 12.8133 8.19105 13.0122 8.59209C13.2144 8.98982 13.4945 9.29309 13.8524 9.50189C14.2104 9.70738 14.6263 9.81013 15.1003 9.81013C15.4085 9.81013 15.6869 9.76704 15.9355 9.68087C16.1874 9.59138 16.4045 9.4588 16.5868 9.28314C16.7691 9.10416 16.9099 8.8821 17.0094 8.61695L18.1429 8.93513C18.0236 9.3196 17.823 9.65767 17.5413 9.94934C17.2596 10.2377 16.9116 10.4631 16.4973 10.6255C16.083 10.7846 15.6173 10.8641 15.1003 10.8641ZM22.2942 10.884C21.8103 10.884 21.3711 10.7928 20.9767 10.6106C20.5823 10.425 20.2691 10.1581 20.0371 9.81013C19.8051 9.4588 19.6891 9.03456 19.6891 8.5374C19.6891 8.0999 19.7752 7.74526 19.9476 7.47348C20.1199 7.19839 20.3503 6.98295 20.6386 6.82718C20.927 6.6714 21.2452 6.5554 21.5932 6.47916C21.9445 6.39962 22.2975 6.33665 22.6521 6.29024C23.1161 6.23059 23.4923 6.18584 23.7807 6.15601C24.0723 6.12287 24.2845 6.06818 24.417 5.99195C24.5529 5.91572 24.6209 5.78314 24.6209 5.59422V5.55445C24.6209 5.06392 24.4866 4.68276 24.2182 4.41098C23.953 4.1392 23.5503 4.00331 23.0101 4.00331C22.4499 4.00331 22.0108 4.12595 21.6926 4.37121C21.3744 4.61648 21.1507 4.87831 21.0214 5.15672L19.9078 4.75899C20.1067 4.29498 20.3718 3.93371 20.7033 3.67519C21.038 3.41335 21.4026 3.23106 21.797 3.12831C22.1947 3.02225 22.5858 2.96922 22.9703 2.96922C23.2156 2.96922 23.4973 2.99905 23.8155 3.05871C24.137 3.11505 24.4469 3.23272 24.7452 3.41169C25.0468 3.59067 25.297 3.86079 25.4959 4.22206C25.6947 4.58333 25.7942 5.06723 25.7942 5.67377V10.705H24.6209V9.67093H24.5612C24.4817 9.83665 24.3491 10.014 24.1635 10.2029C23.9779 10.3918 23.731 10.5526 23.4227 10.6851C23.1145 10.8177 22.7383 10.884 22.2942 10.884ZM22.4731 9.83002C22.9372 9.83002 23.3283 9.73887 23.6464 9.55658C23.9679 9.37429 24.2099 9.13897 24.3723 8.85061C24.538 8.56226 24.6209 8.25899 24.6209 7.94081V6.86695C24.5712 6.92661 24.4618 6.9813 24.2927 7.03101C24.127 7.07741 23.9348 7.11884 23.716 7.1553C23.5006 7.18845 23.2901 7.21827 23.0847 7.24479C22.8825 7.26799 22.7184 7.28788 22.5925 7.30445C22.2875 7.34422 22.0025 7.40885 21.7373 7.49834C21.4755 7.58452 21.2634 7.71543 21.101 7.8911C20.9419 8.06344 20.8623 8.29877 20.8623 8.59706C20.8623 9.00473 21.0132 9.31297 21.3148 9.52178C21.6197 9.72727 22.0058 9.83002 22.4731 9.83002ZM27.9357 10.705V3.06865H29.0692V4.22206H29.1487C29.288 3.84422 29.5398 3.53764 29.9044 3.30232C30.269 3.067 30.68 2.94933 31.1374 2.94933C31.2236 2.94933 31.3313 2.95099 31.4605 2.95431C31.5898 2.95762 31.6876 2.96259 31.7539 2.96922V4.1624C31.7141 4.15246 31.6229 4.13755 31.4804 4.11766C31.3412 4.09446 31.1937 4.08286 31.038 4.08286C30.6667 4.08286 30.3353 4.16075 30.0436 4.31652C29.7553 4.46898 29.5266 4.68111 29.3576 4.95289C29.1918 5.22135 29.109 5.52793 29.109 5.87263V10.705H27.9357ZM36.0145 10.8641C35.2986 10.8641 34.6821 10.6951 34.1651 10.357C33.648 10.0189 33.2503 9.55327 32.9719 8.95999C32.6935 8.36671 32.5543 7.68892 32.5543 6.92661C32.5543 6.15104 32.6968 5.46662 32.9818 4.87334C33.2702 4.27675 33.6712 3.81108 34.185 3.47632C34.702 3.13826 35.3052 2.96922 35.9946 2.96922C36.5316 2.96922 37.0155 3.06865 37.4463 3.26752C37.8772 3.46638 38.2302 3.74479 38.5053 4.10274C38.7804 4.4607 38.9511 4.87831 39.0174 5.35559H37.8441C37.7546 5.00757 37.5557 4.69934 37.2475 4.43087C36.9425 4.15909 36.5316 4.0232 36.0145 4.0232C35.5571 4.0232 35.1561 4.14252 34.8114 4.38115C34.47 4.61648 34.2032 4.94957 34.011 5.38044C33.822 5.808 33.7276 6.31013 33.7276 6.88684C33.7276 7.4768 33.8204 7.99053 34.006 8.42803C34.1949 8.86553 34.4601 9.20525 34.8014 9.4472C35.1461 9.68916 35.5505 9.81013 36.0145 9.81013C36.3194 9.81013 36.5962 9.7571 36.8448 9.65104C37.0934 9.54498 37.3038 9.39252 37.4762 9.19365C37.6485 8.99479 37.7711 8.75615 37.8441 8.47774H39.0174C38.9511 8.9285 38.787 9.33452 38.5252 9.69578C38.2666 10.0537 37.9236 10.3388 37.496 10.5509C37.0718 10.7597 36.578 10.8641 36.0145 10.8641ZM41.9059 6.11127V10.705H40.7326V0.523199H41.9059V4.26184H42.0053C42.1843 3.86742 42.4527 3.55421 42.8107 3.3222C43.1719 3.08688 43.6525 2.96922 44.2524 2.96922C44.7728 2.96922 45.2285 3.07362 45.6196 3.28243C46.0107 3.48792 46.314 3.80445 46.5294 4.23201C46.7482 4.65625 46.8576 5.19649 46.8576 5.85274V10.705H45.6843V5.93229C45.6843 5.32576 45.5268 4.85677 45.212 4.52533C44.9004 4.19058 44.4679 4.0232 43.9144 4.0232C43.5299 4.0232 43.1852 4.1044 42.8803 4.26681C42.5787 4.42921 42.34 4.66619 42.1644 4.97774C41.992 5.2893 41.9059 5.66714 41.9059 6.11127ZM54.1148 6.11127V10.705H52.9415V0.523199H54.1148V4.26184H54.2143C54.3932 3.86742 54.6617 3.55421 55.0197 3.3222C55.3809 3.08688 55.8615 2.96922 56.4614 2.96922C56.9818 2.96922 57.4375 3.07362 57.8286 3.28243C58.2197 3.48792 58.523 3.80445 58.7384 4.23201C58.9572 4.65625 59.0665 5.19649 59.0665 5.85274V10.705H57.8932V5.93229C57.8932 5.32576 57.7358 4.85677 57.4209 4.52533C57.1094 4.19058 56.6769 4.0232 56.1234 4.0232C55.7389 4.0232 55.3942 4.1044 55.0893 4.26681C54.7877 4.42921 54.549 4.66619 54.3734 4.97774C54.201 5.2893 54.1148 5.66714 54.1148 6.11127ZM64.4147 10.8641C63.6789 10.8641 63.0442 10.7017 62.5106 10.3769C61.9803 10.0488 61.571 9.59138 61.2826 9.00473C60.9976 8.41477 60.8551 7.72869 60.8551 6.94649C60.8551 6.1643 60.9976 5.4749 61.2826 4.87831C61.571 4.27841 61.972 3.81108 62.4858 3.47632C63.0028 3.13826 63.606 2.96922 64.2954 2.96922C64.6931 2.96922 65.0859 3.03551 65.4737 3.16808C65.8615 3.30066 66.2144 3.5161 66.5326 3.81439C66.8508 4.10937 67.1044 4.50047 67.2933 4.98769C67.4822 5.4749 67.5767 6.07481 67.5767 6.7874V7.28456H61.6903V6.27036H66.3835C66.3835 5.83949 66.2973 5.45502 66.125 5.11695C65.9559 4.77888 65.714 4.51207 65.3991 4.31652C65.0876 4.12097 64.7197 4.0232 64.2954 4.0232C63.8281 4.0232 63.4237 4.1392 63.0823 4.37121C62.7443 4.5999 62.4841 4.8982 62.3018 5.2661C62.1195 5.63399 62.0284 6.02841 62.0284 6.44934V7.12547C62.0284 7.70218 62.1278 8.19105 62.3267 8.59209C62.5288 8.98982 62.8089 9.29309 63.1669 9.50189C63.5248 9.70738 63.9408 9.81013 64.4147 9.81013C64.723 9.81013 65.0014 9.76704 65.25 9.68087C65.5018 9.59138 65.7189 9.4588 65.9012 9.28314C66.0835 9.10416 66.2244 8.8821 66.3238 8.61695L67.4573 8.93513C67.338 9.3196 67.1375 9.65767 66.8558 9.94934C66.5741 10.2377 66.226 10.4631 65.8117 10.6255C65.3974 10.7846 64.9318 10.8641 64.4147 10.8641ZM69.3615 10.705V3.06865H70.495V4.22206H70.5745C70.7137 3.84422 70.9656 3.53764 71.3302 3.30232C71.6948 3.067 72.1058 2.94933 72.5632 2.94933C72.6493 2.94933 72.7571 2.95099 72.8863 2.95431C73.0156 2.95762 73.1134 2.96259 73.1796 2.96922V4.1624C73.1399 4.15246 73.0487 4.13755 72.9062 4.11766C72.767 4.09446 72.6195 4.08286 72.4637 4.08286C72.0925 4.08286 71.7611 4.16075 71.4694 4.31652C71.1811 4.46898 70.9524 4.68111 70.7833 4.95289C70.6176 5.22135 70.5348 5.52793 70.5348 5.87263V10.705H69.3615ZM77.5397 10.8641C76.8039 10.8641 76.1692 10.7017 75.6356 10.3769C75.1053 10.0488 74.696 9.59138 74.4076 9.00473C74.1226 8.41477 73.9801 7.72869 73.9801 6.94649C73.9801 6.1643 74.1226 5.4749 74.4076 4.87831C74.696 4.27841 75.097 3.81108 75.6108 3.47632C76.1278 3.13826 76.731 2.96922 77.4204 2.96922C77.8181 2.96922 78.2109 3.03551 78.5987 3.16808C78.9865 3.30066 79.3394 3.5161 79.6576 3.81439C79.9758 4.10937 80.2294 4.50047 80.4183 4.98769C80.6072 5.4749 80.7017 6.07481 80.7017 6.7874V7.28456H74.8153V6.27036H79.5085C79.5085 5.83949 79.4223 5.45502 79.25 5.11695C79.0809 4.77888 78.839 4.51207 78.5241 4.31652C78.2126 4.12097 77.8447 4.0232 77.4204 4.0232C76.9531 4.0232 76.5487 4.1392 76.2073 4.37121C75.8693 4.5999 75.6091 4.8982 75.4268 5.2661C75.2445 5.63399 75.1534 6.02841 75.1534 6.44934V7.12547C75.1534 7.70218 75.2528 8.19105 75.4517 8.59209C75.6538 8.98982 75.9339 9.29309 76.2919 9.50189C76.6498 9.70738 77.0658 9.81013 77.5397 9.81013C77.848 9.81013 78.1264 9.76704 78.375 9.68087C78.6268 9.59138 78.8439 9.4588 79.0262 9.28314C79.2085 9.10416 79.3494 8.8821 79.4488 8.61695L80.5823 8.93513C80.463 9.3196 80.2625 9.65767 79.9808 9.94934C79.6991 10.2377 79.351 10.4631 78.9367 10.6255C78.5224 10.7846 78.0568 10.8641 77.5397 10.8641ZM83.3416 10.7846C83.0963 10.7846 82.8858 10.6967 82.7102 10.5211C82.5345 10.3454 82.4467 10.1349 82.4467 9.88968C82.4467 9.64441 82.5345 9.43395 82.7102 9.25828C82.8858 9.08262 83.0963 8.99479 83.3416 8.99479C83.5868 8.99479 83.7973 9.08262 83.973 9.25828C84.1486 9.43395 84.2365 9.64441 84.2365 9.88968C84.2365 10.0521 84.195 10.2012 84.1122 10.3371C84.0326 10.473 83.9249 10.5824 83.789 10.6652C83.6564 10.7448 83.5073 10.7846 83.3416 10.7846ZM87.197 10.7846C86.9518 10.7846 86.7413 10.6967 86.5657 10.5211C86.39 10.3454 86.3022 10.1349 86.3022 9.88968C86.3022 9.64441 86.39 9.43395 86.5657 9.25828C86.7413 9.08262 86.9518 8.99479 87.197 8.99479C87.4423 8.99479 87.6528 9.08262 87.8284 9.25828C88.0041 9.43395 88.0919 9.64441 88.0919 9.88968C88.0919 10.0521 88.0505 10.2012 87.9676 10.3371C87.8881 10.473 87.7804 10.5824 87.6445 10.6652C87.5119 10.7448 87.3628 10.7846 87.197 10.7846ZM91.0525 10.7846C90.8072 10.7846 90.5968 10.6967 90.4211 10.5211C90.2455 10.3454 90.1576 10.1349 90.1576 9.88968C90.1576 9.64441 90.2455 9.43395 90.4211 9.25828C90.5968 9.08262 90.8072 8.99479 91.0525 8.99479C91.2978 8.99479 91.5082 9.08262 91.6839 9.25828C91.8596 9.43395 91.9474 9.64441 91.9474 9.88968C91.9474 10.0521 91.906 10.2012 91.8231 10.3371C91.7436 10.473 91.6358 10.5824 91.5 10.6652C91.3674 10.7448 91.2182 10.7846 91.0525 10.7846Z" fill="black" fill-opacity="0.3" shape-rendering="crispEdges"/>
</g>
<defs>
<filter id="filter0_d_30_42" x="0.246094" y="0.523193" width="95.7013" height="18.3608" filterUnits="userSpaceOnUse" color-interpolation-filters="sRGB">
<feFlood flood-opacity="0" result="BackgroundImageFix"/>
<feColorMatrix in="SourceAlpha" type="matrix" values="0 0 0 0 0 0 0 0 0 0 0 0 0 0 0 0 0 0 127 0" result="hardAlpha"/>
<feOffset dy="4"/>
<feGaussianBlur stdDeviation="2"/>
<feComposite in2="hardAlpha" operator="out"/>
<feColorMatrix type="matrix" values="0 0 0 0 0 0 0 0 0 0 0 0 0 0 0 0 0 0 0.25 0"/>
<feBlend mode="normal" in2="BackgroundImageFix" result="effect1_dropShadow_30_42"/>
<feBlend mode="normal" in="SourceGraphic" in2="effect1_dropShadow_30_42" result="shape"/>
</filter>
</defs>
</svg>
